<svg id="visual" viewBox="0 0 900 600" width="900" height="600" xmlns="http://www.w3.org/2000/svg" xmlns:xlink="http://www.w3.org/1999/xlink" version="1.1"><rect x="0" y="0" width="900" height="600" fill="#FFFFFF"></rect><path d="M0 443L10.7 443.7C21.3 444.3 42.7 445.7 64.2 450C85.7 454.3 107.3 461.7 128.8 465C150.3 468.3 171.7 467.7 193 471.3C214.3 475 235.7 483 257 473.5C278.3 464 299.7 437 321.2 424.7C342.7 412.3 364.3 414.7 385.8 415.3C407.3 416 428.7 415 450 415C471.3 415 492.7 416 514.2 422.8C535.7 429.7 557.3 442.3 578.8 444.7C600.3 447 621.7 439 643 437.8C664.3 436.7 685.7 442.3 707 452.7C728.3 463 749.7 478 771.2 482.2C792.7 486.3 814.3 479.7 835.8 477.5C857.3 475.3 878.7 477.7 889.3 478.8L900 480L900 601L889.3 601C878.7 601 857.3 601 835.8 601C814.3 601 792.7 601 771.2 601C749.7 601 728.3 601 707 601C685.7 601 664.3 601 643 601C621.7 601 600.3 601 578.8 601C557.3 601 535.7 601 514.2 601C492.7 601 471.3 601 450 601C428.7 601 407.3 601 385.8 601C364.3 601 342.7 601 321.2 601C299.7 601 278.3 601 257 601C235.7 601 214.3 601 193 601C171.7 601 150.3 601 128.8 601C107.3 601 85.7 601 64.2 601C42.7 601 21.3 601 10.7 601L0 601Z" fill="#367bb3"></path><path d="M0 448L10.7 455.5C21.3 463 42.7 478 64.2 489.2C85.7 500.3 107.3 507.7 128.8 508.3C150.3 509 171.7 503 193 502.7C214.3 502.3 235.7 507.7 257 504.2C278.3 500.7 299.7 488.3 321.2 488.7C342.7 489 364.3 502 385.8 505.7C407.3 509.3 428.7 503.7 450 502.3C471.3 501 492.7 504 514.2 504.8C535.7 505.7 557.3 504.3 578.8 506.8C600.3 509.3 621.7 515.7 643 506.3C664.3 497 685.7 472 707 461.8C728.3 451.7 749.7 456.3 771.2 457.8C792.7 459.3 814.3 457.7 835.8 464.2C857.3 470.7 878.7 485.3 889.3 492.7L900 500L900 601L889.3 601C878.7 601 857.3 601 835.8 601C814.3 601 792.7 601 771.2 601C749.7 601 728.3 601 707 601C685.7 601 664.3 601 643 601C621.7 601 600.3 601 578.8 601C557.3 601 535.7 601 514.2 601C492.7 601 471.3 601 450 601C428.7 601 407.3 601 385.8 601C364.3 601 342.7 601 321.2 601C299.7 601 278.3 601 257 601C235.7 601 214.3 601 193 601C171.7 601 150.3 601 128.8 601C107.3 601 85.7 601 64.2 601C42.7 601 21.3 601 10.7 601L0 601Z" fill="#22557d"></path><path d="M0 512L10.7 516.7C21.3 521.3 42.7 530.7 64.2 533.2C85.7 535.7 107.3 531.3 128.8 529.3C150.3 527.3 171.7 527.7 193 522.7C214.3 517.7 235.7 507.3 257 501.7C278.3 496 299.7 495 321.2 498.7C342.7 502.3 364.3 510.7 385.8 517.3C407.3 524 428.7 529 450 532.8C471.3 536.7 492.7 539.3 514.2 532.8C535.7 526.3 557.3 510.7 578.8 508.3C600.3 506 621.7 517 643 522.2C664.3 527.3 685.7 526.7 707 525.2C728.3 523.7 749.7 521.3 771.2 520C792.7 518.7 814.3 518.3 835.8 521.7C857.3 525 878.7 532 889.3 535.5L900 539L900 601L889.3 601C878.7 601 857.3 601 835.8 601C814.3 601 792.7 601 771.2 601C749.7 601 728.3 601 707 601C685.7 601 664.3 601 643 601C621.7 601 600.3 601 578.8 601C557.3 601 535.7 601 514.2 601C492.7 601 471.3 601 450 601C428.7 601 407.3 601 385.8 601C364.3 601 342.7 601 321.2 601C299.7 601 278.3 601 257 601C235.7 601 214.3 601 193 601C171.7 601 150.3 601 128.8 601C107.3 601 85.7 601 64.2 601C42.7 601 21.3 601 10.7 601L0 601Z" fill="#10324c"></path><path d="M0 547L10.7 545.7C21.3 544.3 42.7 541.7 64.2 542.8C85.7 544 107.3 549 128.8 549.2C150.3 549.3 171.7 544.7 193 542C214.3 539.3 235.7 538.7 257 538C278.3 537.3 299.7 536.7 321.2 540C342.7 543.3 364.3 550.7 385.8 556C407.3 561.3 428.7 564.7 450 565.8C471.3 567 492.7 566 514.2 563.8C535.7 561.7 557.3 558.3 578.8 558.7C600.3 559 621.7 563 643 563.5C664.3 564 685.7 561 707 556.2C728.3 551.3 749.7 544.7 771.2 542.7C792.7 540.7 814.3 543.3 835.8 544.5C857.3 545.7 878.7 545.3 889.3 545.2L900 545L900 601L889.3 601C878.7 601 857.3 601 835.8 601C814.3 601 792.7 601 771.2 601C749.7 601 728.3 601 707 601C685.7 601 664.3 601 643 601C621.7 601 600.3 601 578.8 601C557.3 601 535.7 601 514.2 601C492.7 601 471.3 601 450 601C428.7 601 407.3 601 385.8 601C364.3 601 342.7 601 321.2 601C299.7 601 278.3 601 257 601C235.7 601 214.3 601 193 601C171.7 601 150.3 601 128.8 601C107.3 601 85.7 601 64.2 601C42.7 601 21.3 601 10.7 601L0 601Z" fill="#001220"></path></svg>