<svg id="visual" viewBox="0 0 900 600" width="900" height="600" xmlns="http://www.w3.org/2000/svg" xmlns:xlink="http://www.w3.org/1999/xlink" version="1.1"><rect x="0" y="0" width="900" height="600" fill="#FFFFFF"></rect><path d="M0 154L10.7 160.5C21.3 167 42.7 180 64.2 175C85.7 170 107.3 147 128.8 135.7C150.3 124.3 171.7 124.7 193 135.5C214.3 146.3 235.7 167.7 257 179C278.3 190.3 299.7 191.7 321.2 191.8C342.7 192 364.3 191 385.8 187.2C407.3 183.3 428.7 176.7 450 163.5C471.3 150.3 492.7 130.7 514.2 132C535.7 133.3 557.3 155.7 578.8 167C600.3 178.3 621.7 178.7 643 180C664.3 181.3 685.7 183.7 707 184.2C728.3 184.7 749.7 183.3 771.2 176.5C792.7 169.7 814.3 157.3 835.8 155.5C857.3 153.7 878.7 162.3 889.3 166.7L900 171L900 0L889.3 0C878.7 0 857.3 0 835.8 0C814.3 0 792.7 0 771.2 0C749.7 0 728.3 0 707 0C685.7 0 664.3 0 643 0C621.7 0 600.3 0 578.8 0C557.3 0 535.7 0 514.2 0C492.7 0 471.3 0 450 0C428.7 0 407.3 0 385.8 0C364.3 0 342.7 0 321.2 0C299.7 0 278.3 0 257 0C235.7 0 214.3 0 193 0C171.7 0 150.3 0 128.8 0C107.3 0 85.7 0 64.2 0C42.7 0 21.3 0 10.7 0L0 0Z" fill="#001220"></path><path d="M0 151L10.7 146.2C21.3 141.3 42.7 131.7 64.2 120C85.7 108.3 107.3 94.7 128.8 99.2C150.3 103.7 171.7 126.3 193 134.8C214.3 143.3 235.7 137.7 257 129.2C278.3 120.7 299.7 109.3 321.2 107.8C342.7 106.3 364.3 114.7 385.8 117.3C407.3 120 428.7 117 450 110.3C471.3 103.7 492.7 93.3 514.2 95.3C535.7 97.3 557.3 111.7 578.8 122.5C600.3 133.3 621.7 140.7 643 137.8C664.3 135 685.7 122 707 122.7C728.3 123.3 749.7 137.7 771.2 142C792.7 146.3 814.3 140.7 835.8 131.7C857.3 122.7 878.7 110.3 889.3 104.2L900 98L900 0L889.3 0C878.7 0 857.3 0 835.8 0C814.3 0 792.7 0 771.2 0C749.7 0 728.3 0 707 0C685.7 0 664.3 0 643 0C621.7 0 600.3 0 578.8 0C557.3 0 535.7 0 514.2 0C492.7 0 471.3 0 450 0C428.7 0 407.3 0 385.8 0C364.3 0 342.7 0 321.2 0C299.7 0 278.3 0 257 0C235.7 0 214.3 0 193 0C171.7 0 150.3 0 128.8 0C107.3 0 85.7 0 64.2 0C42.7 0 21.3 0 10.7 0L0 0Z" fill="#10324c"></path><path d="M0 103L10.7 97.8C21.3 92.7 42.7 82.3 64.2 83.5C85.7 84.7 107.3 97.3 128.8 103.5C150.3 109.7 171.7 109.3 193 103C214.3 96.7 235.7 84.3 257 77C278.3 69.7 299.7 67.3 321.2 63.8C342.7 60.3 364.3 55.7 385.8 60.7C407.3 65.7 428.7 80.3 450 89.8C471.3 99.3 492.7 103.7 514.2 103.7C535.7 103.7 557.3 99.3 578.8 90.3C600.3 81.3 621.7 67.7 643 63.8C664.3 60 685.7 66 707 74.3C728.3 82.7 749.7 93.3 771.2 97.5C792.7 101.7 814.3 99.3 835.8 92.3C857.3 85.3 878.7 73.7 889.3 67.8L900 62L900 0L889.3 0C878.7 0 857.3 0 835.8 0C814.3 0 792.7 0 771.2 0C749.7 0 728.3 0 707 0C685.7 0 664.3 0 643 0C621.7 0 600.3 0 578.8 0C557.3 0 535.7 0 514.2 0C492.7 0 471.3 0 450 0C428.7 0 407.3 0 385.8 0C364.3 0 342.7 0 321.2 0C299.7 0 278.3 0 257 0C235.7 0 214.3 0 193 0C171.7 0 150.3 0 128.8 0C107.3 0 85.7 0 64.2 0C42.7 0 21.3 0 10.7 0L0 0Z" fill="#22557d"></path><path d="M0 36L10.7 39.3C21.3 42.7 42.7 49.3 64.2 49.3C85.7 49.3 107.3 42.7 128.8 39.3C150.3 36 171.7 36 193 35.8C214.3 35.7 235.7 35.3 257 39.5C278.3 43.7 299.7 52.3 321.2 56.3C342.7 60.3 364.3 59.7 385.8 56.5C407.3 53.3 428.7 47.7 450 43C471.3 38.3 492.7 34.7 514.2 37.2C535.7 39.7 557.3 48.3 578.8 52.5C600.3 56.7 621.7 56.3 643 55.2C664.3 54 685.7 52 707 52.7C728.3 53.3 749.7 56.7 771.2 55.7C792.7 54.7 814.3 49.3 835.8 47.2C857.3 45 878.7 46 889.3 46.5L900 47L900 0L889.3 0C878.7 0 857.3 0 835.8 0C814.3 0 792.7 0 771.2 0C749.7 0 728.3 0 707 0C685.7 0 664.3 0 643 0C621.7 0 600.3 0 578.8 0C557.3 0 535.7 0 514.2 0C492.7 0 471.3 0 450 0C428.7 0 407.3 0 385.8 0C364.3 0 342.7 0 321.2 0C299.7 0 278.3 0 257 0C235.7 0 214.3 0 193 0C171.7 0 150.3 0 128.8 0C107.3 0 85.7 0 64.2 0C42.7 0 21.3 0 10.7 0L0 0Z" fill="#367bb3"></path></svg>