<svg id="visual" viewBox="0 0 960 540" width="960" height="540" xmlns="http://www.w3.org/2000/svg" xmlns:xlink="http://www.w3.org/1999/xlink" version="1.1"><rect x="0" y="0" width="960" height="540" fill="#FFFFFF"></rect><defs><linearGradient id="grad1_0" x1="43.8%" y1="0%" x2="100%" y2="100%"><stop offset="14.444444444444446%" stop-color="#ffffff" stop-opacity="1"></stop><stop offset="85.55555555555554%" stop-color="#ffffff" stop-opacity="1"></stop></linearGradient></defs><defs><linearGradient id="grad2_0" x1="0%" y1="0%" x2="56.3%" y2="100%"><stop offset="14.444444444444446%" stop-color="#ffffff" stop-opacity="1"></stop><stop offset="85.55555555555554%" stop-color="#ffffff" stop-opacity="1"></stop></linearGradient></defs><g transform="translate(960, 0)"><path d="M0 297C-27 244.7 -54.1 192.4 -66.2 159.8C-78.3 127.3 -75.6 114.4 -115.3 115.3C-154.9 116.1 -237 130.6 -274.4 113.7C-311.8 96.7 -304.4 48.4 -297 0L0 0Z" fill="#001122"></path></g><g transform="translate(0, 540)"><path d="M0 -297C31.3 -269.8 62.6 -242.7 93.8 -226.4C124.9 -210 156 -204.6 188.8 -188.8C221.6 -173 256.1 -146.8 274.4 -113.7C292.7 -80.5 294.9 -40.2 297 0L0 0Z" fill="#001122"></path></g></svg>