<svg id="visual" viewBox="0 0 900 450" width="900" height="450" xmlns="http://www.w3.org/2000/svg" xmlns:xlink="http://www.w3.org/1999/xlink" version="1.1"><rect x="0" y="0" width="900" height="450" fill="#000f16"></rect><path d="M0 74L11.5 61.8C23 49.7 46 25.3 69 24.8C92 24.3 115 47.7 138.2 48C161.3 48.3 184.7 25.7 207.8 16.5C231 7.3 254 11.7 277 19.3C300 27 323 38 346 39.8C369 41.7 392 34.3 415.2 33.2C438.3 32 461.7 37 484.8 32.5C508 28 531 14 554 14.2C577 14.3 600 28.7 623 31.2C646 33.7 669 24.3 692.2 30.3C715.3 36.3 738.7 57.7 761.8 67.8C785 78 808 77 831 65.8C854 54.7 877 33.3 888.5 22.7L900 12L900 0L888.5 0C877 0 854 0 831 0C808 0 785 0 761.8 0C738.7 0 715.3 0 692.2 0C669 0 646 0 623 0C600 0 577 0 554 0C531 0 508 0 484.8 0C461.7 0 438.3 0 415.2 0C392 0 369 0 346 0C323 0 300 0 277 0C254 0 231 0 207.8 0C184.7 0 161.3 0 138.2 0C115 0 92 0 69 0C46 0 23 0 11.5 0L0 0Z" fill="#ffffff" stroke-linecap="round" stroke-linejoin="miter"></path></svg>