<svg id="visual" viewBox="0 0 960 540" width="960" height="540" xmlns="http://www.w3.org/2000/svg" xmlns:xlink="http://www.w3.org/1999/xlink" version="1.1"><rect x="0" y="0" width="960" height="540" fill="#FFFFFF"></rect><defs><linearGradient id="grad1_0" x1="43.8%" y1="100%" x2="100%" y2="0%"><stop offset="14.444444444444446%" stop-color="#ffffff" stop-opacity="1"></stop><stop offset="85.55555555555554%" stop-color="#ffffff" stop-opacity="1"></stop></linearGradient></defs><defs><linearGradient id="grad2_0" x1="0%" y1="100%" x2="56.3%" y2="0%"><stop offset="14.444444444444446%" stop-color="#ffffff" stop-opacity="1"></stop><stop offset="85.55555555555554%" stop-color="#ffffff" stop-opacity="1"></stop></linearGradient></defs><g transform="translate(960, 540)"><path d="M-378 0C-356.8 -47.4 -335.6 -94.7 -306.7 -127.1C-277.8 -159.4 -241.1 -176.6 -216.4 -216.4C-191.6 -256.2 -178.7 -318.5 -144.7 -349.2C-110.6 -379.9 -55.3 -379 0 -378L0 0Z" fill="#001122"></path></g><g transform="translate(0, 0)"><path d="M378 0C354.6 42.9 331.2 85.7 314.1 130.1C297 174.5 286.1 220.5 259.5 259.5C232.9 298.5 190.5 330.6 144.7 349.2C98.8 367.8 49.4 372.9 0 378L0 0Z" fill="#001122"></path></g></svg>